<svg width="356" height="356" viewBox="0 0 356 356" fill="none" xmlns="http://www.w3.org/2000/svg">
<style>
  path {
    fill: #7DC1C7;
  }

  @media (prefers-color-scheme: dark) {
    path {
      fill: white;
    }
  }
</style>
<path d="M89.6453 71.5707C87.819 73.4618 87.6213 76.5965 89.1887 78.2934C89.8429 79.0124 91.4716 79.8608 92.8414 80.2526C95.9728 81.2305 98.3886 83.0603 100.801 86.4506L102.692 89.0607V85.8646C102.692 82.0142 101.193 75.7515 99.6902 73.4652C97.2812 69.8091 92.1906 68.8311 89.6453 71.5707Z"/>
<path d="M118.032 80.8351C114.246 81.8778 110.267 86.9684 107.984 93.8853C106.157 99.303 106.222 99.4972 109.026 96.8225C112.291 93.8206 116.008 92.1237 119.794 92.1237C123.971 92.1237 126.319 90.0997 126.319 86.6413C126.319 82.532 122.274 79.7277 118.032 80.8351Z"/>
<path d="M81.4233 85.2068C76.3327 87.425 74.8335 94.0796 78.4862 98.1275C80.3773 100.216 80.5101 100.281 86.5139 100.346C94.2146 100.475 95.9762 101.194 104.525 107.982C105.568 108.83 102.699 101.065 100.283 96.4307C97.7378 91.7319 91.7987 85.9257 88.6026 85.0126C85.3384 84.0994 83.9039 84.1641 81.4233 85.2068Z"/>
<path d="M93.1038 113.008C77.0517 114.704 63.2178 119.403 51.275 127.169C46.0549 130.562 35.0252 141.721 31.1102 147.592C19.8216 164.493 13.426 186.613 12.1857 213.303C11.8586 221.069 11.9233 222.636 12.707 222.636C13.2283 222.636 32.8718 221.593 56.2974 220.353C79.7878 219.048 99.4312 218.135 99.9526 218.2C100.474 218.329 81.0928 223.42 56.8835 229.553C13.8825 240.515 12.9694 240.777 13.0988 242.276C13.1636 243.125 13.3612 245.213 13.6202 246.975L14.012 250.042H135.059H256.109L260.153 248.018C284.1 235.945 300.612 214.738 305.308 189.81C305.829 187.002 306.286 184.589 306.286 184.46C306.286 184.395 310.006 184.133 314.637 183.939C334.931 182.896 347.133 179.438 345.828 175.131C344.721 171.737 334.083 168.67 316.269 166.452C309.873 165.668 304.589 165.018 304.524 164.953C304.524 164.888 304.981 161.757 305.635 157.971C310.204 131.479 308.115 120.514 300.088 128.934C295.13 134.089 291.147 146.096 288.605 163.845C287.037 174.613 285.797 178.528 282.08 184.075C275.684 193.602 264.004 199.865 249.192 201.694C234.901 203.456 226.809 201.63 219.762 195.105C215.128 190.798 212.583 186.883 204.688 171.549C200.579 163.58 195.359 154.247 193.072 150.853C178.911 129.516 158.944 118.03 128.994 113.921C120.25 112.745 100.283 112.224 93.1038 113.008ZM73.6579 179.107C81.8799 183.741 80.5102 196.662 71.4397 199.466C68.9592 200.25 64.3933 199.923 62.3046 198.88C59.6946 197.51 57.214 194.379 56.3008 191.309C54.9311 186.872 57.3435 181.588 61.848 178.845C64.7204 177.086 70.2642 177.216 73.6579 179.107Z"/>
</svg>
