<svg width="178" height="96" viewBox="0 0 178 96" fill="none" xmlns="http://www.w3.org/2000/svg">
<path d="M41.3834 0.837113C40.41 1.84503 40.3047 3.5158 41.14 4.42019C41.4887 4.80338 42.3568 5.25558 43.0869 5.46443C44.7558 5.98564 46.0434 6.96086 47.3292 8.76783L48.3371 10.1589V8.45547C48.3371 6.40333 47.538 3.06542 46.7371 1.84684C45.4532 -0.101787 42.74 -0.622997 41.3834 0.837113Z" fill="#7DC1C7"/>
<path d="M56.513 5.77498C54.4953 6.33069 52.3742 9.04388 51.1574 12.7305C50.184 15.618 50.2185 15.7215 51.7131 14.2959C53.4529 12.696 55.4342 11.7916 57.4519 11.7916C59.6783 11.7916 60.9296 10.7128 60.9296 8.86954C60.9296 6.67937 58.774 5.18476 56.513 5.77498Z" fill="#7DC1C7"/>
<path d="M37.0012 8.10499C34.2881 9.28724 33.489 12.834 35.4358 14.9915C36.4437 16.1047 36.5145 16.1392 39.7144 16.1737C43.8187 16.2427 44.7576 16.6259 49.3141 20.2435C49.8698 20.6957 48.3407 16.5569 47.0531 14.0871C45.6965 11.5827 42.5311 8.48818 40.8277 8.00147C39.0879 7.51477 38.3233 7.54927 37.0012 8.10499Z" fill="#7DC1C7"/>
<path d="M43.2267 22.9222C34.6712 23.8266 27.298 26.3309 20.9328 30.4697C18.1506 32.2785 12.272 38.2261 10.1853 41.3552C4.16874 50.3628 0.760005 62.1527 0.0989604 76.3778C-0.0753811 80.5166 -0.040876 81.352 0.376817 81.352C0.654674 81.352 11.1242 80.7963 23.6096 80.1353C36.1295 79.4397 46.5991 78.953 46.877 78.9875C47.1548 79.0565 36.8251 81.7697 23.922 85.0386C1.00336 90.8809 0.516654 91.0207 0.585664 91.8198C0.620169 92.272 0.7255 93.3852 0.86352 94.3241L1.07237 95.9586H65.5878H130.105L132.261 94.8798C145.024 88.4455 153.825 77.1424 156.327 63.8561C156.605 62.3597 156.848 61.0739 156.848 61.0049C156.848 60.9704 158.831 60.8306 161.299 60.7271C172.116 60.1713 178.619 58.328 177.924 56.0325C177.333 54.2238 171.664 52.5893 162.169 51.407C158.761 50.9894 155.944 50.6425 155.909 50.608C155.909 50.5735 156.153 48.9045 156.501 46.8869C158.937 32.767 157.824 26.923 153.545 31.4104C150.903 34.1581 148.78 40.5579 147.425 50.0178C146.589 55.7565 145.928 57.8432 143.947 60.7997C140.538 65.8774 134.313 69.2153 126.418 70.1905C118.802 71.1294 114.489 70.156 110.733 66.6783C108.263 64.3828 106.907 62.2961 102.699 54.1239C100.509 49.8761 97.7266 44.9019 96.508 43.0931C88.9605 31.721 78.3184 25.5991 62.3552 23.4089C57.6952 22.7824 47.0531 22.5045 43.2267 22.9222ZM32.8624 58.1519C37.2446 60.6217 36.5145 67.5082 31.6802 69.0028C30.3581 69.4205 27.9246 69.2462 26.8113 68.6905C25.4202 67.9604 24.0982 66.2915 23.6115 64.6552C22.8814 62.2907 24.1672 59.474 26.568 58.012C28.0989 57.075 31.0537 57.144 32.8624 58.1519Z" fill="#7DC1C7"/>
</svg>
